<mxfile host="app.diagrams.net" modified="2023-12-05T20:50:21.360Z" agent="Mozilla/5.0 (Windows NT 10.0; Win64; x64) AppleWebKit/537.36 (KHTML, like Gecko) Chrome/119.0.0.0 Safari/537.36" version="22.1.5" etag="Z3R4k0v75tpGR1wtmH2p" type="github">
  <diagram name="Page-1" id="C4IOkPwy5G1W01gVTTgX">
    <mxGraphModel>
      <root>
        <mxCell id="0" />
        <mxCell id="1" parent="0" />
      </root>
    </mxGraphModel>
  </diagram>
</mxfile>
